<?xml version="1.0" encoding="UTF-8"?><svg id="a" xmlns="http://www.w3.org/2000/svg" viewBox="0 0 771.62 273.5"><path d="M352.49,206.18c-.6-4.35-.9-17.73-.9-40.13s-.37-35.72-1.1-39.73c-.74-4.01-2.44-6.82-5.12-8.43-5.55-3.34-8.33-5.95-8.33-7.83s1.17-3.21,3.51-4.01c2.41-.8,8.46-1.2,18.16-1.2h15.25c7.42,0,11.14,1.5,11.14,4.51,0,.13-1.27,1.77-3.81,4.92-2.48,3.08-4.15,7.56-5.02,13.44-.87,5.82-1.31,18.03-1.31,36.62s.47,31.3,1.4,38.13c2.81,20.33,14.11,30.53,33.91,30.6,12.98,0,22.37-4.55,28.19-13.65,4.88-7.49,7.32-20.5,7.32-39.03l.2-8.23v-21.47c0-10.23-.64-17.83-1.91-22.78-1.2-5.02-3.04-9.4-5.52-13.14-2.41-3.75-3.61-5.72-3.61-5.92,0-2.54,4.92-3.81,14.75-3.81s16.45,.33,19.87,1,5.12,2.54,5.12,5.62c0,1.54-2.01,3.48-6.02,5.82s-6.49,4.92-7.42,7.73c-.94,2.74-1.4,13.38-1.4,31.91l.2,24.18c-.07,13.11-.84,23.04-2.31,29.8-1.47,6.82-4.51,12.98-9.13,18.46-8.96,10.7-23.51,16.05-43.64,16.05s-34.85-6.12-44.15-18.36c-4.41-5.75-7.19-12.77-8.33-21.07Z"/><path d="M547.72,120c-5.49-3.75-11.67-5.62-18.56-5.62s-12.41,1.81-16.75,5.42c-4.35,3.54-6.52,8.56-6.52,15.05s3.24,12.11,9.73,17.06c3.88,3.01,11.81,7.09,23.78,12.24,11.97,5.15,20.3,9.9,24.98,14.25,8.96,8.29,13.44,16.92,13.44,25.89v3.61c0,11.1-4.41,20.13-13.24,27.09-4.08,3.21-9.16,5.79-15.25,7.73-6.09,1.87-12.17,2.81-18.26,2.81h-3.71c-13.78,0-25.85-2.07-36.22-6.22-4.68-1.87-7.02-6.99-7.02-15.35v-3.51c0-9.9,1.7-14.85,5.12-14.85,2.34,0,5.52,3.18,9.53,9.53s8.63,11.14,13.85,14.35c5.28,3.21,11.64,4.82,19.06,4.82s13.41-1.94,17.96-5.82c4.55-3.95,6.82-8.8,6.82-14.55,0-7.89-3.68-14.55-11.04-19.97-3.14-2.27-11.04-6.32-23.68-12.14-12.64-5.89-21.4-11.37-26.29-16.45-6.69-6.96-10.03-15.45-10.03-25.48s3.58-18.36,10.74-24.98c3.95-3.68,8.86-6.52,14.75-8.53,5.89-2.07,11.91-3.11,18.06-3.11h3.71c2.54,0,6.15,.43,10.84,1.3l3.51,.7c4.15,.8,6.39,1.24,6.72,1.3l3.11,.2,3.01,.1c2.81,.2,4.78,.54,5.92,1,3.95,1.61,5.92,7.19,5.92,16.76s-1.87,14.35-5.62,14.35c-1.87,0-4.68-2.68-8.43-8.03s-7.06-9-9.93-10.94Z"/><path d="M643.41,108.86c0,1.27-1.94,3.14-5.82,5.62-3.81,2.47-6.19,5.85-7.12,10.13-.87,4.21-1.31,21.04-1.31,50.47s.54,46.19,1.61,50.47c1.14,4.21,3.58,7.39,7.32,9.53,3.81,2.07,5.72,4.01,5.72,5.82,0,2.48-3.04,3.71-9.13,3.71l-2.21-.1-4.62-.1c-1.54-.07-3.08-.1-4.62-.1l-4.41-.2h-13.55c-10.9,0-16.35-.97-16.35-2.91v-1.4c0-1.27,2.14-3.14,6.42-5.62,4.35-2.54,7.06-6.09,8.13-10.64,1.07-4.62,1.61-20.97,1.61-49.06s-.63-44.58-1.91-49.26c-1.27-4.75-3.28-7.86-6.02-9.33-5.49-3.01-8.23-5.28-8.23-6.82,0-2.61,10.33-3.91,31-3.91l11.04-.2h6.52c3.95,0,5.92,1.3,5.92,3.91Z"/><path d="M722.46,103.64h3.41c4.68,0,10.07,.6,16.15,1.81,6.09,1.14,10.87,1.81,14.35,2.01,3.48,.2,6.22,.87,8.23,2.01,3.88,2.21,5.82,7.93,5.82,17.16s-1.74,13.85-5.22,13.85c-1.14,0-3.95-2.54-8.43-7.63-4.48-5.15-8.76-8.83-12.84-11.04-7.22-3.88-15.32-5.82-24.28-5.82-5.15,0-10.33,1.4-15.55,4.21-15.72,8.36-23.58,26.55-23.58,54.58,.07,17.39,4.11,31.44,12.14,42.14,8.03,10.7,19.2,16.05,33.51,16.05,12.24,0,22.61-4.05,31.1-12.14,5.28-5.01,8.66-7.52,10.13-7.52,2.81,0,4.21,2.04,4.21,6.12,0,2.07-1.3,5.32-3.91,9.73s-5.52,7.53-8.73,9.33c-9.03,5.02-20.77,7.53-35.22,7.53h-3.51c-8.09,0-16.29-1.47-24.58-4.41-16.79-5.95-28.56-17.73-35.32-35.32-3.48-9.16-5.22-19.16-5.22-30s1.74-20.9,5.22-30c7.02-18.46,18.93-31,35.72-37.62,8.5-3.34,17.29-5.02,26.39-5.02Z"/><path d="M168.15,190.63c1.87,0,14.85-25.95,38.93-77.86,24.08-52.04,38.93-82.34,44.55-90.9,5.62-8.56,12.11-14.31,19.46-17.26,7.36-3.08,19.06-4.62,35.12-4.62s24.28,3.75,24.28,11.24l-4.82,6.02-6.22,6.62c-4.01,5.22-6.89,11.3-8.63,18.26-1.61,6.82-2.41,18.13-2.41,33.91,0,67.15,1.74,116.12,5.22,146.88,1.34,12.04,5.69,21.54,13.04,28.49,7.36,6.82,11.04,11.37,11.04,13.65l-5.02,3.61c-6.42,2.94-19.06,4.41-37.93,4.41s-30.7-2.48-35.52-7.42l-2.01-4.41c0-3.88,1.47-11.84,4.41-23.88,2.94-12.17,4.41-24.28,4.41-36.32,0-87.76-2.81-131.63-8.43-131.63-2.81,0-15.58,27.16-38.33,81.47-22.74,54.31-36.72,86.22-41.94,95.72-5.08,9.36-11.84,14.05-20.27,14.05-5.89,0-22.01-32.11-48.36-96.32-26.22-64.35-41.6-96.52-46.15-96.52-3.75,0-5.62,32.84-5.62,98.53,0,29.16,.47,47.09,1.4,53.78s2.47,14.72,4.62,24.08c2.27,9.36,3.41,15.58,3.41,18.66s-2.07,5.62-6.22,7.63-9.5,3.01-16.05,3.01h-11.04c-22.07,0-33.11-2.81-33.11-8.43,0-2.81,3.75-7.42,11.24-13.85,7.63-6.55,12.04-12.17,13.24-16.86,1.34-4.82,3.08-28.9,5.22-72.24,2.14-43.48,3.21-72.97,3.21-88.49s-.94-26.29-2.81-32.31c-1.87-6.15-6.22-12.57-13.04-19.26C10.37,15.38,7.02,10.3,7.02,6.82,7.02,2.54,19.4,.4,44.15,.4c9.5,0,17.73,1.34,24.68,4.01,6.96,2.54,13.78,8.76,20.47,18.66,6.82,9.77,21,40.13,42.54,91.1,21.54,50.97,33.64,76.45,36.32,76.45Z"/><path d="M343.39,87.09V46.63h18.96c4.85,0,8.55,.96,11.1,2.89,2.54,1.89,3.81,4.43,3.81,7.63,0,2.16-.5,4.01-1.5,5.55-1,1.5-2.35,2.68-4.05,3.53-1.66,.81-3.47,1.21-5.43,1.21l1.04-2.08c2.27,0,4.32,.42,6.13,1.27,1.81,.81,3.24,2,4.28,3.58,1.08,1.58,1.62,3.54,1.62,5.89,0,3.47-1.33,6.16-3.99,8.09s-6.61,2.89-11.85,2.89h-20.11Zm7.51-5.89h12.14c2.81,0,4.97-.46,6.47-1.39s2.25-2.41,2.25-4.45-.75-3.47-2.25-4.39c-1.5-.96-3.66-1.44-6.47-1.44h-12.71v-5.84h11.21c2.62,0,4.62-.46,6.01-1.39,1.43-.92,2.14-2.31,2.14-4.16s-.71-3.29-2.14-4.22c-1.39-.92-3.39-1.39-6.01-1.39h-10.63v28.66Z"/><path d="M387.35,87.09V46.63h7.51v40.45h-7.51Z"/><path d="M405.81,87.09V46.63h7.51v34.1h21.15v6.36h-28.66Z"/><path d="M440.4,87.09V46.63h7.51v34.1h21.15v6.36h-28.66Z"/><path d="M480.7,87.09v-16.01l1.68,4.62-17.57-29.07h8.03l14.1,23.41h-4.51l14.22-23.41h7.4l-17.57,29.07,1.73-4.62v16.01h-7.51Z"/><path d="M524.94,87.09V46.63h16.64c3.58,0,6.65,.58,9.19,1.73,2.58,1.16,4.57,2.81,5.95,4.97,1.39,2.16,2.08,4.72,2.08,7.69s-.69,5.53-2.08,7.69c-1.39,2.16-3.37,3.81-5.95,4.97-2.54,1.16-5.61,1.73-9.19,1.73h-12.48l3.35-3.53v15.2h-7.51Zm7.51-14.39l-3.35-3.64h12.14c3.31,0,5.8-.69,7.46-2.08,1.7-1.43,2.54-3.41,2.54-5.95s-.85-4.57-2.54-5.95c-1.66-1.39-4.14-2.08-7.46-2.08h-12.14l3.35-3.7v23.41Z"/><path d="M558.56,87.09l18.2-40.45h7.4l18.26,40.45h-7.86l-15.66-36.47h3.01l-15.6,36.47h-7.74Zm8.38-9.36l2.02-5.89h21.84l2.02,5.89h-25.89Z"/><path d="M607.57,87.09V46.63h7.51v34.1h21.15v6.36h-28.66Z"/><path d="M642.16,87.09V46.63h6.18l17.68,29.53h-3.24l17.39-29.53h6.18l.06,40.45h-7.11l-.06-29.3h1.5l-14.79,24.68h-3.35l-15.03-24.68h1.73v29.3h-7.17Z"/><path d="M704.29,63.45h20.11v6.18h-20.11v-6.18Zm.58,17.34h22.83v6.3h-30.34V46.63h29.53v6.3h-22.02v27.86Z"/><path d="M736.07,87.09V46.63h16.64c3.58,0,6.65,.58,9.19,1.73,2.58,1.16,4.57,2.81,5.95,4.97,1.39,2.16,2.08,4.72,2.08,7.69s-.69,5.53-2.08,7.69c-1.39,2.12-3.37,3.76-5.95,4.91-2.54,1.12-5.61,1.68-9.19,1.68h-12.48l3.35-3.41v15.2h-7.51Zm26.47,0l-10.23-14.68h8.03l10.29,14.68h-8.09Zm-18.96-14.39l-3.35-3.58h12.14c3.31,0,5.8-.71,7.46-2.14,1.7-1.43,2.54-3.41,2.54-5.95s-.85-4.57-2.54-5.95c-1.66-1.39-4.14-2.08-7.46-2.08h-12.14l3.35-3.7v23.41Z"/></svg>